# xmcd
#
# Track frame offsets:
#	150
#	15532
#	28675
#	44912
#	84120
#	105702
#	123192
#	133577
#	155245
#	174555
#	193802
#	210505
#	228592
#	252777
#	277910
#	297610
#
# Disc length: 4109 seconds
#
# Revision: 1
# Processed by: cddbd v1.5.1PL0 Copyright (c) Steve Scherf et al.
# Submitted via: CDex 1.50Beta5
#
DISCID=e5100b10
DTITLE=Various Artist - ザ・シネマ・ヒッツ
DYEAR=1900
DGENRE=
TTITLE0=カリブの熱い夜/見つめて欲しい
TTITLE1=BEN E. KING/スタンド・バイ・ミー/スタンド・バイ・ミー
TTITLE2=カクテル/ココモ
TTITLE3=パープル・レイン/パープル・レイン
TTITLE4=007・リヴィング・デイライツ/リヴィング・デイライツ
TTITLE5=ミスター・アーサー/ニューヨーク・シティ・セレナーデ
TTITLE6=TIMOTHY B. SCHMIT/初体験リッジモンド・ハイ/ソー・マッチ・イン・ラブ
TTITLE7=バットマン・フォーエヴァー/キス・フローム・ア・ローズ
TTITLE8=GARY WRIGHT/ウェインズ・ワールド/夢織り人
TTITLE9=トッツィー/君に想いを
TTITLE10=ザ・ローズ/ザ・ローズ
TTITLE11=マイケル/スピリット・イン・ザ・スカイ
TTITLE12=ツイン・ピークス/フォーリン
TTITLE13=GEORGR BENSON/アリ/ザ・グレーテスト/グレイテスト・ラヴ・オブ・オール
TTITLE14=ベスト・キッド2/グローリー・オヴ・ラヴ
TTITLE15=LALO SCHIFRIN/燃えよドラゴン/燃えよドラゴン
EXTD=
EXTT0=
EXTT1=
EXTT2=
EXTT3=
EXTT4=
EXTT5=
EXTT6=
EXTT7=
EXTT8=
EXTT9=
EXTT10=
EXTT11=
EXTT12=
EXTT13=
EXTT14=
EXTT15=
PLAYORDER=
